Simulation
nRows=45
nColumns=15
endheader
time  TH_x TH_y TH_z SC_y  SC_z  SC_x  AC_y  AC_z  AC_x  GH_y  GH_z  GH_yy  EL_x  PS_y
1.55  0.000000  0.000000  0.000000  -34.57547573552246  7.333518490000259  23.55286132463765  59.15555706999577  6.483945302527091  -5.06571531913099  16.65813756616107  56.84130775905006  -18.42321026067498  17.927990738367257  0.000000
1.581  0.000000  0.000000  0.000000  -34.935804393006585  7.625850317709176  23.683890511103137  59.27387380887364  6.830694976726249  -4.483015613869706  16.22535753212654  57.49404339415754  -18.292322783709647  17.912094585233866  0.000000
1.612  0.000000  0.000000  0.000000  -35.264642524320735  7.882858249325485  23.767555585084807  59.37602929577844  7.163208371364024  -3.94742616913564  15.848527274316833  58.06456807895961  -18.177623214595744  17.905313960414798  0.000000
1.643  0.000000  0.000000  0.000000  -35.559272780480086  8.100090886196492  23.81001771817086  59.4636391885235  7.474219042635856  -3.4707205669096717  15.531776440334616  58.5420804716604  -18.07878901799152  17.90920180529145  0.000000
1.674  0.000000  0.000000  0.000000  -35.819038661710636  8.275964548999106  23.817334938248273  59.53704022407678  7.756853295294461  -3.0623178800571518  15.281338292322708  58.91530168694346  -17.99768082068676  17.923424386422692  0.000000
1.705  0.000000  0.000000  0.000000  -36.04337625480016  8.411259480769484  23.794721937700675  59.59504610488274  8.004233983943767  -2.7295725590921784  15.10484466094328  59.173353954649784  -17.937543272750883  17.94572042154559  0.000000
1.736  0.000000  0.000000  0.000000  -36.22969985803148  8.507572157062437  23.745583226347097  59.63539909349287  8.209388575662913  -2.4785842651618655  15.009788915162801  59.30686959268851  -17.902946421337088  17.972575664974755  0.000000
1.767  0.000000  0.000000  0.000000  -36.372261197670525  8.56582650185339  23.670873365030598  59.65543999729583  8.365763112801687  -2.3146872440576147  15.001911037825218  59.30864341037454  -17.900183854078506  18.000083467413056  0.000000
1.798  0.000000  0.000000  0.000000  -36.462701609699884  8.585281819612058  23.56954610269487  59.65306352272997  8.468059465650994  -2.242515764127893  15.084190060908243  59.173881289251476  -17.937735623614337  18.024691395967732  0.000000
1.829  0.000000  0.000000  0.000000  -36.492200312620945  8.563298237201659  23.44000200888958  59.62765366777494  8.513234213346246  -2.2654823742662513  15.256657819243932  58.90008550151607  -18.026287940220662  18.043769719831513  0.000000
1.8599999999999999  0.000000  0.000000  0.000000  -36.45378860694756  8.495978083242894  23.282150092952193  59.580551743099164  8.500593904216817  -2.3853931380353384  15.516717973876341  58.486945580393375  -18.177725827842217  18.055964073691687  0.000000
1.891  0.000000  0.000000  0.000000  -36.34420540786051  8.379110383148387  23.09869548431084  59.514764663391254  8.430792107704747  -2.602581021320315  15.859988165825174  57.93654860809992  -18.402880168115324  18.061706565723977  0.000000
1.922  0.000000  0.000000  0.000000  -36.16463047437473  8.209401312749797  22.894083400266563  59.433807587286125  8.304961631374743  -2.9158523116042567  16.2813429495034  57.25400964392612  -18.70845885587294  18.06373986419165  0.000000
1.953  0.000000  0.000000  0.000000  -35.920311166968816  7.985951695724026  22.672721710074573  59.340102652202816  8.123998373003342  -3.3221614348007877  16.775641070359082  56.44797275626491  -19.094256506837326  18.067193735856915  0.000000
1.984  0.000000  0.000000  0.000000  -35.61969026594082  7.710767833806915  22.437752737725503  59.2341593156741  7.888329418455764  -3.8165412401640344  17.33805821242633  55.530770921985344  -19.552235011793982  18.079010223738642  0.000000
2.015  0.000000  0.000000  0.000000  -35.273363381244  7.38819653948234  22.19026625466454  59.11474085978843  7.598799800280529  -4.3918768490300355  17.9638812950204  54.51786581056871  -20.06812421359424  18.10648896612355  0.000000
2.046  0.000000  0.000000  0.000000  -34.89294181588774  7.023883809856004  21.9294883068554  58.979826416456305  7.257727800058944  -5.038781945965917  18.64791981106506  53.42676487653031  -20.62490713944291  18.155185873173636  0.000000
2.077  0.000000  0.000000  0.000000  -34.49033076422231  6.623590360066909  21.653649399310343  58.82783083115657  6.869400013919108  -5.745936236649142  19.384010493364343  52.27581452450421  -21.20636230380348  18.2272511948026  0.000000
2.108  0.000000  0.000000  0.000000  -34.077135364545505  6.192529143213771  21.360392308905993  58.658260304483385  6.439999583715488  -6.50054361575594  20.16478041838752  51.08311754285755  -21.79918941906833  18.321005720546633  0.000000
2.139  0.000000  0.000000  0.000000  -33.664177716372365  5.735339430189964  21.046633641445055  58.47170027869885  5.977006918735293  -7.288708848581995  20.981520648375  49.86563718013721  -22.393093874873138  18.431707039560163  0.000000
2.17  0.000000  0.000000  0.000000  -33.26102812837422  5.256371896521359  20.708059243645128  58.2694791616231  5.488528352191777  -8.095527376701748  21.82411447388419  48.63850245691419  -22.979497195853604  18.55294514720178  0.000000
2.201  0.000000  0.000000  0.000000  -32.8756969043833  4.760086012506187  20.338762550931932  58.05342024987157  4.982911495681341  -8.904888814656692  22.680974845028643  47.41435048562362  -23.549900483510424  18.677953692295574  0.000000
2.232  0.000000  0.000000  0.000000  -32.51450579793641  4.251357793489166  19.931324771480035  57.82586305178346  4.468798780279972  -9.699192435758663  23.539140649656034  46.20272061529554  -24.094601699708473  18.800573960117077  0.000000
2.263  0.000000  0.000000  0.000000  -32.18222410683963  3.735705579500877  19.477409598457516  57.58989280447507  3.9554454031993154  -10.459331176977093  24.384609833015986  45.00943447434725  -24.60225487243691  18.915869392260657  0.000000
2.294  0.000000  0.000000  0.000000  -31.882207010472815  3.2193653139267053  18.968624414204523  57.34943346023899  3.453032407893487  -11.165236532798023  25.203009127527032  43.83605618159732  -25.060265821321124  19.020424782505167  0.000000
2.325  0.000000  0.000000  0.000000  -31.616383295779688  2.7091095848355526  18.3975533954602  57.10899032155048  2.9727023429252686  -11.797276016136511  25.98073500595118  42.679399670082205  -25.456222278354286  19.112427702200478  0.000000
2.356  0.000000  0.000000  0.000000  -31.384947027364642  2.211749944138778  17.758696831918602  56.87301463474018  2.526164019996132  -12.338186637124977  26.706725524995946  41.53141313324197  -25.78013551377118  19.191611930353975  0.000000
2.387  0.000000  0.000000  0.000000  -31.186048037176846  1.7335861958916707  17.04928061852718  56.64517290556974  2.1250497477517376  -12.775009711434862  27.374376711076565  40.37960775194083  -26.0269179578488  19.259053137264498  0.000000
2.418  0.000000  0.000000  0.000000  -31.01588876954708  1.2799007414380381  16.270088589020457  56.42790177189755  1.7799932941061305  -13.10041080164804  27.982421506080158  39.20835135353445  -26.197924879776963  19.316851933763893  0.000000
2.449  0.000000  0.000000  0.000000  -30.86925631939477  0.854810447422148  15.426280228645483  56.222509643524944  1.4996875628354538  -13.313150637032866  28.53492065281298  38.00065356441428  -26.301415914292527  19.36741721505036  0.000000
2.48  0.000000  0.000000  0.000000  -30.740408159224927  0.46116530734164  14.527663470174277  56.02966671495796  1.2902689113266652  -13.417703134644755  29.040770695517477  36.740488080802955  -26.35189039512667  19.412881011668343  0.000000
2.511  0.000000  0.000000  0.000000  -30.623729452280728  0.1009062638156048  13.588372577111159  55.849957496487455  1.1550716236242924  -13.423270007010759  29.512876818521878  35.41484378699386  -26.36841981503634  19.454733066679257  0.000000
2.542  0.000000  0.000000  0.000000  -30.51391727963716  -0.224453538862632  12.625955828519954  55.68396179384455  1.094104993257012  -13.342721717811047  29.967430156106456  34.015299335597135  -26.37264896236393  19.49364704164339  0.000000
2.573  0.000000  0.000000  0.000000  -30.406703395866028  -0.5140300937399279  11.65928201441003  55.5317575503361  1.1043834995966937  -13.190957435106135  30.42332765389068  32.53900866369362  -26.386459598379403  19.530017742520837  0.000000
2.604  0.000000  0.000000  0.000000  -30.298524878637796  -0.766998669332982  10.706028139520784  55.392557239748164  1.1805870554882063  -12.983223914464958  30.90124936967064  30.988992173003336  -26.429965286058962  19.564123443047965  0.000000
2.635  0.000000  0.000000  0.000000  -30.186622336761513  -0.9828322214223135  9.781357870051467  55.26435809075647  1.3150401628371444  -12.734350040267227  31.422515938139952  29.373336089437913  -26.519927058071733  19.596397892801935  0.000000
2.666  0.000000  0.000000  0.000000  -30.069889976225287  -1.1624089731139222  8.897057335996806  55.1440528898253  1.4979693372229668  -12.458867574976333  32.00833187080692  27.70369456679609  -26.669509192124245  19.62790185037984  0.000000
2.697  0.000000  0.000000  0.000000  -29.949194671693373  -1.308029948262405  8.060220726233373  55.02788805571984  1.7194043398799004  -12.16989739252163  32.679587347052376  25.993710320696103  -26.88959116019592  19.66065994855286  0.000000
2.7279999999999998  0.000000  0.000000  0.000000  -29.82716768158214  -1.4232167311197583  7.273382398045145  54.912409981281094  1.9706348976002848  -11.877664042345721  33.45596181367227  24.25829424812334  -27.189042420676223  19.698029698862175  0.000000
2.759  0.000000  0.000000  0.000000  -29.707143404285457  -1.5120477124287852  6.538127180348019  54.79547846262901  2.2428074568405045  -11.590706086616054  34.355787745005884  22.512742329670953  -27.57568828647356  19.7451039133681  0.000000
2.79  0.000000  0.000000  0.000000  -29.592294652979213  -1.5782294117764104  5.856727839969956  54.67605090980891  2.5268782100714064  -11.316208458902226  35.397017836775845  20.770961049864646  -28.057457045708208  19.809328352364147  0.000000
2.821  0.000000  0.000000  0.000000  -29.484421661705802  -1.62478322471537  5.231207474803549  54.553983675710796  2.814995171495464  -11.059369437592292  36.59895325136454  19.043927165281982  -28.644558905002615  19.89998052291423  0.000000
2.852  0.000000  0.000000  0.000000  -29.383479373459785  -1.6542016757892115  4.663763553099446  54.42993711809895  3.1002200259458004  -10.823892850403984  37.9848451721228  17.339369937756192  -29.352618612662674  20.02723437798629  0.000000
2.883  0.000000  0.000000  0.000000  -29.28788919443288  -1.6681847478971317  4.156727489421779  54.305204894059074  3.3764592048273037  -10.612197954406614  39.586945606719425  15.662171363090692  -30.208398040800894  20.200262796387534  0.000000
2.914  0.000000  0.000000  0.000000  -29.1959003071754  -1.6680641547663073  3.7119143251088915  54.18106231362738  3.6388218283870795  -10.425705185280972  41.45484781079016  14.015521971777844  -31.25945493330469  20.42532040409946  0.000000
